<svg xmlns="http://www.w3.org/2000/svg" viewBox="0 0 1372.16 1386.6317"><title>logo</title><path d="M1192.55142,1373.11858H195.44852c-96.05119,0-141.78986-47.26327-164.65919-86.90342C7.92,1243.52569,7.92,1202.36094,7.92,1199.31163c0-497.02682,396.40178-995.5783,503.12533-1102.30184C607.09652.95858,680.27838.95858,694,.95858c13.72162-1.52462,86.90348,0,182.95467,96.0512h0C983.67822,203.73333,1380.08,702.2848,1380.08,1199.31174c0,1.5246,0,44.21407-22.86933,86.90342C1334.34133,1325.85532,1288.60267,1373.11858,1192.55142,1373.11858Z" transform="translate(-7.92 -0.68415)" style="fill:#fff"/><path d="M977.23359,1386.459H407.02492c-10.67237,0-61.17548,6.47969-44.78578-16.19911s26.4903-520.46786,26.4903-520.46786c0-10.67237,9.14774-18.29548,18.29548-18.29548H978.75831c10.67231,0,18.29542,9.14771,18.29542,18.29548,0,0,15.69806,499.37516,29.45188,520.09722C1041.03914,1391.78607,987.906,1386.459,977.23359,1386.459Z" transform="translate(-7.92 -0.68415)"/></svg>